<svg xmlns="http://www.w3.org/2000/svg" xmlns:xlink="http://www.w3.org/1999/xlink" width="976.70" height="266.00" viewBox="0 0 976.7045 266.0000">
<defs>
    <linearGradient
       id="nirs4all_h_linearGradient1">
      <stop
         style="stop-color:#e9362d;stop-opacity:1;"
         offset="0.56532985"
         id="nirs4all_h_stop1" />
      <stop
         style="stop-color:#058e96;stop-opacity:1;"
         offset="0.79430789"
         id="nirs4all_h_stop2" />
    </linearGradient>
    <clipPath
       clipPathUnits="userSpaceOnUse"
       id="nirs4all_h_clipEmfPath2-0">
      <path
         d="M 0,0 H 492.98898 V 303.48346 H 0 Z"
         id="nirs4all_h_path2-9" />
    </clipPath>
    <linearGradient
       xlink:href="#nirs4all_h_linearGradient1"
       id="nirs4all_h_linearGradient2"
       x1="146.54227"
       y1="136.40149"
       x2="226.01004"
       y2="136.40149"
       gradientUnits="userSpaceOnUse" />
  </defs><g transform="translate(28.0,28.0) scale(2.6153015139395137)"><g
     id="nirs4all_h_layer1"
     transform="translate(-142.875,-89.429166)">
    <path
       style="fill:#ffffff;fill-opacity:1;fill-rule:evenodd;stroke:none;stroke-width:0.264583"
       d="m 152.5374,93.698333 h 81.67052 c 3.17916,0 5.75656,2.577396 5.75656,5.756563 V 118.2801 l 5.8474,6.54 1.57823,-0.15895 c 0.77208,0 1.53281,0.0681 2.25947,0.22708 l 0.35198,0.10219 -0.12489,-1.27167 c 0,-6.21073 5.0526,-11.24063 11.28604,-11.24063 6.23344,0 11.29739,5.0299 11.29739,11.24063 0,6.21073 -5.06395,11.24063 -11.29739,11.24063 -0.78344,0 -1.54417,-0.0795 -2.27083,-0.22709 l -0.3974,-0.12489 0.1249,1.27166 -0.0908,0.88563 1.20354,-0.37469 c 0.72667,-0.15896 1.4874,-0.22708 2.25948,-0.22708 6.21073,0 11.22927,5.01854 11.22927,11.21791 0,6.19938 -5.01854,11.22927 -11.22927,11.22927 -6.19937,0 -11.22927,-5.02989 -11.22927,-11.22927 l 0.0908,-0.87427 -1.20355,0.37469 c -0.72666,0.1476 -1.48739,0.22708 -2.25947,0.22708 -2.32761,0 -4.4849,-0.70396 -6.27886,-1.91885 l -1.14677,-0.9424 v 15.28271 c 0,3.17917 -2.5774,5.74521 -5.75656,5.74521 H 152.5374 c -3.17917,0 -5.75657,-2.56604 -5.75657,-5.74521 V 99.454896 c 0,-3.179167 2.5774,-5.756563 5.75657,-5.756563 z"
       id="nirs4all_h_path3" />
    <path
       style="fill:url(#nirs4all_h_linearGradient2);fill-opacity:1;fill-rule:nonzero;stroke:none;stroke-width:0.264583"
       d="m 146.84896,150.34427 1.86208,0.14761 h -0.0681 l 1.81666,0.0795 h -0.12489 l 1.72583,-0.0341 -0.19302,0.0114 1.58958,-0.19303 -0.20437,0.0341 1.39656,-0.32927 -0.22708,0.0681 1.24896,-0.46552 -0.26115,0.11355 1.19219,-0.65855 -0.17032,0.11354 0.60178,-0.4201 -0.0795,0.0568 0.62447,-0.48823 -0.0341,0.0227 1.22625,-0.99916 -0.0568,0.0568 0.60178,-0.53365 -0.0681,0.0681 0.60177,-0.59042 -0.10219,0.10219 0.62448,-0.71531 -0.0908,0.10219 0.65854,-0.87427 -0.0681,0.11354 0.6926,-1.06729 -0.0568,0.0795 0.36334,-0.62448 -0.0113,0.0341 0.38604,-0.69261 -0.0341,0.0568 0.40875,-0.79479 -0.0227,0.0341 0.44281,-0.90833 -0.0113,0.0341 0.46552,-1.01052 -0.0114,0.0227 0.48823,-1.09001 -0.0114,0.0227 1.02188,-2.37302 -0.0113,0.0227 1.04458,-2.49792 v 0.0114 l 1.01052,-2.48656 0.48823,-1.19219 0.46552,-1.13541 0.43146,-1.0673 0.40875,-0.97645 0.37469,-0.87427 0.31791,-0.74938 0.28386,-0.64719 0.24979,-0.53364 -0.0227,0.0227 0.19302,-0.44281 0.17031,-0.37469 0.26115,-0.57906 0.19302,-0.42011 0.21573,-0.4201 0.24979,-0.37469 0.24979,-0.36333 0.3974,-0.59042 0.62448,-0.76073 0.8175,-0.68125 0.85156,-0.53364 0.91969,-0.3974 0.95375,-0.2725 0.95375,-0.1249 0.97646,0.0227 0.91968,0.18167 0.77208,0.29521 0.73803,0.35198 0.76073,0.49958 0.73802,0.64719 0.65854,0.79479 0.60177,0.93104 0.57906,1.09 0.545,1.28302 0.48823,1.38521 0.43146,1.40792 0.70396,2.75906 0.63583,2.62281 -0.0114,-0.0341 0.31792,1.2149 -0.0227,-0.0795 0.35198,1.14677 -0.0114,-0.0227 0.35198,1.06729 0.30656,0.99917 -0.0114,-0.0341 0.60177,1.82801 -0.0341,-0.0795 0.32927,0.86292 -0.0568,-0.1476 0.3974,0.82885 -0.0681,-0.13625 0.47688,0.8175 -0.11355,-0.17031 0.59042,0.80614 -0.10219,-0.11354 0.65854,0.76073 -0.12489,-0.13625 0.6926,0.65854 -0.19302,-0.17031 0.72667,0.52229 -0.31792,-0.18166 0.76073,0.35198 -0.45417,-0.14761 0.7948,0.14761 -0.53365,-0.0227 0.8175,-0.0795 -0.3974,0.0908 0.42011,-0.13626 -0.28386,0.11355 0.42011,-0.21573 -0.14761,0.0795 0.43146,-0.2725 -0.19302,0.1476 0.44281,-0.36333 -0.17031,0.15895 0.45417,-0.47687 -0.14761,0.17031 0.47688,-0.63583 -0.0568,0.0795 0.49958,-0.74938 -0.0568,0.0908 0.51094,-0.86291 -0.0227,0.0454 0.52229,-0.9424 -0.0227,0.0341 0.53365,-1.01052 -0.0227,0.0454 1.06729,-2.15729 v 0.0113 l 1.06729,-2.19135 0.53365,-1.05594 0.51093,-1.02188 0.51094,-0.95374 0.51094,-0.90834 0.51094,-0.79479 0.48823,-0.69261 0.95375,-1.12406 1.04458,-1.01052 0.69261,-0.48823 0.74937,-0.39739 0.82885,-0.2725 0.91969,-0.1249 0.97646,0.0568 0.97646,0.22708 0.9651,0.40875 0.96511,0.55636 0.98781,0.71531 1.01052,0.87427 1.05594,1.04458 1.1127,1.2149 0.57907,0.6699 0.59041,0.73802 0.64719,0.80614 0.65854,0.86292 1.43063,1.85073 1.53281,1.96427 v 0 l 1.58959,2.02104 -0.0227,-0.0227 1.60093,1.98698 -0.0341,-0.0454 1.60094,1.87344 -0.0227,-0.0341 0.77208,0.86292 -0.0454,-0.0454 0.76073,0.79479 -2.75906,2.64552 -0.78344,-0.8175 -0.80614,-0.90833 -1.635,-1.9075 -1.62365,-2.02104 -1.60093,-2.0324 -1.53282,-1.98698 -1.43062,-1.85073 -0.65854,-0.85156 0.0113,0.0227 -0.62448,-0.78344 0.0114,0.0114 -0.57907,-0.71532 0.0341,0.0454 -0.53364,-0.62448 0.0341,0.0454 -1.05594,-1.15812 0.0795,0.0795 -0.98781,-0.9651 0.0795,0.0681 -0.89698,-0.78344 0.1476,0.11354 -0.84021,-0.60177 0.13625,0.0908 -0.77208,-0.45416 0.23844,0.12489 -0.71531,-0.29521 0.28385,0.0908 -0.65854,-0.15895 0.34062,0.0454 -0.61312,-0.0341 0.37468,-0.0113 -0.5677,0.0795 0.32927,-0.0795 -0.52229,0.17031 0.28385,-0.1249 -0.49958,0.26115 0.21573,-0.1249 -0.46552,0.32928 0.22708,-0.18167 -0.87427,0.84021 0.13625,-0.15896 -0.82886,0.98781 0.0908,-0.11354 -0.4201,0.59042 0.0568,-0.0795 -0.45417,0.71531 0.0568,-0.0908 -0.47687,0.84021 0.0227,-0.0454 -0.48823,0.91969 0.0113,-0.0227 -0.51094,0.99916 0.0114,-0.0113 -0.52229,1.04459 v -0.0227 l -1.06729,2.19135 -1.07865,2.18 -0.55635,1.04459 -0.545,0.98781 -0.545,0.93104 -0.55635,0.84021 -0.57907,0.76073 -0.61312,0.64718 -0.62448,0.51094 -0.60177,0.38604 -0.63583,0.31792 -0.76073,0.24979 -1.29438,0.1249 -1.29437,-0.23844 -1.14677,-0.53365 -0.97646,-0.70396 -0.85157,-0.80614 -0.77208,-0.89698 -0.6926,-0.9424 -0.56771,-0.97645 -0.46552,-0.96511 -0.37469,-0.97646 -0.62448,-1.88479 -0.30656,-1.01052 0.0113,0.0227 -0.35198,-1.06729 -0.36333,-1.20354 -0.32927,-1.26032 -0.64719,-2.63416 0.0113,0.0227 -0.68125,-2.70229 0.0227,0.0908 -0.40875,-1.32844 0.0227,0.0681 -0.45417,-1.29438 0.0454,0.11354 -0.48823,-1.14677 0.0681,0.14761 -0.49958,-0.9424 0.0908,0.15896 -0.49958,-0.76073 0.12489,0.17031 -0.49958,-0.60177 0.20437,0.20438 -0.52229,-0.46552 0.21573,0.17031 -0.53365,-0.35198 0.22709,0.1249 -0.545,-0.26115 0.17031,0.0681 -0.55635,-0.20437 0.26114,0.0795 -0.60177,-0.1249 0.36334,0.0341 -0.65855,-0.0114 0.28386,-0.0114 -0.68125,0.0908 0.26114,-0.0568 -0.6926,0.19302 0.24979,-0.0908 -0.66989,0.29521 0.23843,-0.1249 -0.62448,0.38604 0.22709,-0.15895 -0.56771,0.47687 0.23844,-0.24979 -0.46553,0.56771 0.10219,-0.1249 -0.35198,0.51094 0.0113,-0.0114 -0.23843,0.35198 v -0.0113 l -0.18167,0.2725 0.1249,-0.20438 -0.14761,0.29521 0.0114,-0.0454 -0.18167,0.38605 0.0227,-0.0341 -0.24979,0.55635 v -0.0113 l -0.15896,0.36333 -0.19302,0.45417 -0.24979,0.53364 0.0114,-0.0227 -0.2725,0.62448 0.0114,-0.0114 -0.31792,0.73802 v -0.0113 l -0.36333,0.85156 -0.40875,0.97646 0.0114,-0.0113 -0.43146,1.05594 -0.46552,1.13541 -0.48823,1.19219 -1.01052,2.49792 -1.05594,2.50927 -1.03323,2.39573 -0.49958,1.11271 -0.47688,1.03322 -0.45416,0.95376 -0.43146,0.8402 -0.42011,0.73802 -0.38604,0.6699 -0.76073,1.16948 -0.73802,0.97646 -0.71531,0.82885 -0.6926,0.6699 -0.6699,0.59041 -1.27167,1.04459 -0.68125,0.53364 -0.72666,0.49959 -1.39657,0.78343 -1.49875,0.55636 -1.61229,0.37469 -1.79396,0.21573 -1.88479,0.0454 -1.9075,-0.0908 -1.89614,-0.14761 z"
       id="nirs4all_h_path4" />
    <path
       style="fill:#058e96;fill-opacity:1;fill-rule:evenodd;stroke:none;stroke-width:0.264583"
       d="m 250.80771,134.89125 11.35416,11.0476 -2.38437,2.44115 -11.34281,-11.04761 z"
       id="nirs4all_h_path111" />
    <path
       style="fill:#058e96;fill-opacity:1;fill-rule:evenodd;stroke:none;stroke-width:0.264583"
       d="m 246.62938,135.4476 11.07031,-11.3201 2.44114,2.38438 -11.07031,11.3201 z"
       id="nirs4all_h_path112" />
    <path
       style="fill:#058e96;fill-opacity:1;fill-rule:evenodd;stroke:none;stroke-width:0.264583"
       d="m 223.44417,114.40833 c 0,-3.09968 2.53198,-5.63166 5.63166,-5.63166 3.11104,0 5.63167,2.53198 5.63167,5.63166 0,3.11105 -2.52063,5.63167 -5.63167,5.63167 -3.09968,0 -5.63166,-2.52062 -5.63166,-5.63167 z"
       id="nirs4all_h_path113" />
    <path
       style="fill:#058e96;fill-opacity:1;fill-rule:evenodd;stroke:none;stroke-width:0.264583"
       d="m 255.59917,123.67333 c 0,-3.20187 2.61145,-5.81333 5.81333,-5.81333 3.21323,0 5.81333,2.61146 5.81333,5.81333 0,3.21323 -2.6001,5.81334 -5.81333,5.81334 -3.20188,0 -5.81333,-2.60011 -5.81333,-5.81334 z"
       id="nirs4all_h_path114" />
    <path
       style="fill:#058e96;fill-opacity:1;fill-rule:evenodd;stroke:none;stroke-width:0.264583"
       d="m 256.5075,147.38083 c 0,-3.25864 2.61146,-5.90416 5.81333,-5.90416 3.21323,0 5.81334,2.64552 5.81334,5.90416 0,3.27 -2.60011,5.90417 -5.81334,5.90417 -3.20187,0 -5.81333,-2.63417 -5.81333,-5.90417 z"
       id="nirs4all_h_path115" />
    <path
       style="fill:#058e96;fill-opacity:1;fill-rule:evenodd;stroke:none;stroke-width:0.264583"
       d="m 241.7925,135.845 c 0,-3.20187 2.61146,-5.81333 5.81333,-5.81333 3.21323,0 5.81334,2.61146 5.81334,5.81333 0,3.21323 -2.60011,5.81333 -5.81334,5.81333 -3.20187,0 -5.81333,-2.6001 -5.81333,-5.81333 z"
       id="nirs4all_h_path116" />
    <path
       style="fill:#058e96;fill-opacity:1;fill-rule:evenodd;stroke:none;stroke-width:0.264583"
       d="m 222.53583,149.10667 c 0,-3.20188 2.61146,-5.81334 5.81334,-5.81334 3.21323,0 5.81333,2.61146 5.81333,5.81334 0,3.21322 -2.6001,5.81333 -5.81333,5.81333 -3.20188,0 -5.81334,-2.60011 -5.81334,-5.81333 z"
       id="nirs4all_h_path117" />
    <path
       style="fill:#058e96;fill-opacity:1;fill-rule:evenodd;stroke:none;stroke-width:0.264583"
       d="m 231.81219,115.71406 17.67843,19.75625 -2.54333,2.27084 -17.67844,-19.7449 z"
       id="nirs4all_h_path118" />
    <path
       style="fill:#058e96;fill-opacity:1;fill-rule:evenodd;stroke:none;stroke-width:0.264583"
       d="m 212.5101,129.46396 13.38657,-13.29573 2.39572,2.41844 -13.38656,13.29573 z"
       id="nirs4all_h_path119" />
    <path
       style="fill:#000000;fill-opacity:1;fill-rule:evenodd;stroke:none"
       clip-path="url(#nirs4all_h_clipEmfPath2-0)"
       d="M 31.455512,-0.34330709 H 351.0315 c 17.55157,0 31.7559,14.24724409 31.7559,31.79881909 V 126.46575 L 367.33858,109.21457 V 37.89252 c 0,-12.015748 -9.74134,-21.757087 -21.71417,-21.757087 H 37.120079 c -11.972835,0 -21.714173,9.741339 -21.714173,21.757087 v 227.05472 c 0,12.01575 9.741338,21.75709 21.714173,21.75709 H 345.62441 c 11.97283,0 21.71417,-9.74134 21.71417,-21.75709 v -57.63267 l 4.29134,3.56181 c 2.27441,1.50197 4.67756,2.83228 7.20945,3.90512 l 3.94803,1.24448 v 55.35827 c 0,17.55158 -14.22891,30.82739 -31.7559,31.75591 -1120.13302,59.34096 -215.18227,0.12479 -319.575988,0 -17.551562,-0.021 -31.79881909,-14.20433 -31.79881909,-31.75591 V 31.455512 c 0,-17.551575 14.24724409,-31.79881909 31.79881909,-31.79881909 z"
       id="nirs4all_h_path120"
       transform="matrix(0.26458333,0,0,0.26458333,142.875,89.429167)" />
  </g></g>
<path fill="#FFFFFF" d="M439.7520280689366 144.71123472892197V192.0H419.73189220222105V108.37046979865771H439.4067406384102V129.64210704829068H435.491362728385Q439.52395681264466 118.45981936870805 446.86371462186764 112.56618046088506Q454.2034724310906 106.67254155306208 465.10061303642823 106.67254155306208Q473.88803651718536 106.67254155306208 480.60058387063543 110.46912751677851Q487.3131312240855 114.26571348049497 491.1144880069347 121.63081415163592Q494.91584478978393 128.99591482277685 494.91584478978393 139.7632330772861V192.0H474.89570892306836V142.93726339660236Q474.89570892306836 133.71260666815226 470.4924555444243 128.96406585898174Q466.0892021657802 124.21552504981123 458.03346862970636 124.21552504981123Q452.79074926361994 124.21552504981123 448.6567547297483 126.35696062945678Q444.52276019587663 128.49839620910234 442.1373941324066 133.02360757917364Q439.7520280689366 137.54881894924495 439.7520280689366 144.71123472892197Z M512.6271942156438 192.0V108.37046979865771H532.6473300823595V192.0ZM522.6087532419651 95.93358719588926Q517.4960012364073 95.93358719588926 514.0764066573123 92.6599563642797Q510.6568120782173 89.38632553267013 510.6568120782173 84.55806576790289Q510.6568120782173 79.72416123767826 514.0764066573123 76.47562010080222Q517.4960012364073 73.22707896392616 522.5718470062188 73.22707896392616Q527.7133598455126 73.22707896392616 531.1370271256128 76.47256557504829Q534.5606944057131 79.71805218617044 534.5606944057131 84.59497305416396Q534.5606944057131 89.40799601510066 531.1319988950813 92.67079160549497Q527.7033033844494 95.93358719588926 522.6087532419651 95.93358719588926Z M550.3238385109458 192.0V108.37046979865771H569.5963817025356V122.25801010643876H569.8561424119526Q572.1527867072546 115.0513276989828 577.085030638148 111.30541295813234Q582.0172745690415 107.55949821728187 590.1426320957823 107.55949821728187Q592.1351620480684 107.55949821728187 593.7934929782277 107.66086966495385Q595.4518239083872 107.76224111262583 596.642894915623 107.86361256029781V125.60303586409395Q595.5373506294966 125.45097869258599 592.8526700440834 125.22289293532404Q590.1679894586703 124.99480717806208 587.209279209352 124.99480717806208Q582.5019549906019 124.99480717806208 578.6562590751237 127.16157111865562Q574.8105631596455 129.32833505924916 572.5772687686535 133.68563003027998Q570.3439743776615 138.04292500131083 570.3439743776615 144.62877254614094V192.0Z M640.906506492804 193.98619786204907Q630.7031212946077 193.98619786204907 622.6332203108357 190.7851619029205Q614.5633193270637 187.58412594379195 609.6643551223394 181.36260560310927Q604.7653909176153 175.1410852624266 604.096992873362 166.147738340237H623.8447038501866Q624.500437713966 172.25211501153524 628.7912312365384 175.62741396091127Q633.0820247591107 179.00271291028733 640.5327101552411 179.00271291028733Q647.7901652923531 179.00271291028733 651.9352482346245 176.14375483365666Q656.0803311768959 173.28479675702602 656.0803311768959 168.8530199703754Q656.0803311768959 165.0706449572672 653.023401024054 162.7613074795512Q649.9664708712122 160.45197000183515 644.6572500566673 159.35590935009438L630.3959134113234 156.416195371487Q618.4121957886304 153.90096345427852 612.2049299014659 147.8188216036598Q605.9976640143016 141.7366797530411 605.9976640143016 132.25868141123112Q605.9976640143016 124.58949539901425 610.1522015890184 118.80037948301174Q614.3067391637353 113.01126356700922 621.8983063171539 109.78329447291841Q629.4898734705725 106.55532537882759 639.7217675758053 106.55532537882759Q649.8586223236032 106.55532537882759 657.5578930149308 109.95593818818162Q665.2571637062583 113.35655099753565 669.6635396271108 119.57490529309982Q674.0699155479634 125.793259588664 674.307499440581 134.39378490063967H655.516427122523Q655.4372324916505 128.82477437473784 651.2193015097137 125.1532834456271Q647.0013705277768 121.48179251651635 640.1779100883892 121.48179251651635Q633.6078782681816 121.48179251651635 629.7843301675629 124.4199452240195Q625.9607820669441 127.35809793152265 625.9607820669441 131.63148545642827Q625.9607820669441 135.3853515625 628.9179310451583 137.73428635565227Q631.8750800233724 140.0832211488045 637.0671136656229 141.22363543414428L652.1266997079886 144.33440285497062Q664.5919172061534 146.9573383100881 670.4570617079099 152.56273660339764Q676.3222062096664 158.16813489670722 676.3222062096664 167.33886735135277Q676.3222062096664 175.49906587536702 671.7827838889868 181.4845780955065Q667.2433615683074 187.47009031564596 659.2415668070081 190.7281440888475Q651.2397720457088 193.98619786204907 640.906506492804 193.98619786204907Z"/>
<path fill="#E9362D" d="M685.5660332204677 165.54257419253355V149.08929025534815L739.0098608866799 73.99999999999999H752.0831330592366V94.84382963244546H744.7704595653015L706.5967610216946 148.54461888818278V148.7091328256082H781.0175952289094V165.54257419253355ZM744.8923533822232 192.0V160.57554726824665V153.09331742869128V73.99999999999999H764.7287716262458V192.0Z"/>
<path fill="#058E96" d="M819.9593798149517 193.3526408150692Q811.6154346663045 193.3526408150692 805.0992981179613 190.5586519177328Q798.5831615696183 187.7646630203964 794.813494239894 182.17351918060507Q791.0438269101699 176.58237534081377 791.0438269101699 168.26693909920303Q791.0438269101699 161.11724550388004 793.7269462244788 156.47486146248428Q796.4100655387876 151.8324774210885 801.0081104475544 149.05908956847736Q805.6061553563212 146.2857017158662 811.5425866266389 144.83961181640626Q817.4790178969567 143.3935219169463 823.9064471781019 142.71561123636744Q831.6770336399308 141.83495766044462 836.22755886998 141.18081406970953Q840.7780841000293 140.5266704789744 842.7326070099234 139.20253857094167Q844.6871299198175 137.87840666290896 844.6871299198175 135.02421940541106V134.4033265389052Q844.6871299198175 130.80784969457844 842.8656389087803 128.0676835642565Q841.0441478977432 125.32751743393456 837.6276613598866 123.76419685927013Q834.2111748220301 122.2008762846057 829.4056016978167 122.2008762846057Q824.5936964833661 122.2008762846057 820.9174492360926 123.75627449598888Q817.2412019888192 125.31167270737205 815.0870877277296 128.05341460976825Q812.9329734666401 130.79515651216443 812.6161949431502 134.36527599360318H793.4133047441674Q793.9233135266757 126.02769193713297 798.4215627598447 119.82042604996855Q802.9198119930138 113.6131601628041 810.9136988920018 110.1428508579331Q818.9075857909899 106.67254155306208 829.8617442104005 106.67254155306208Q838.0029174617638 106.67254155306208 844.4445866954572 108.63815287135591Q850.8862559291506 110.60376418964974 855.3575720273574 114.30373502385696Q859.8288881255642 118.00370585806418 862.1603734181397 123.2289612226038Q864.4918587107152 128.45421658714343 864.4918587107152 134.97350467963506V192.0H844.8581833620365V180.1778231832005H844.5414048385466Q842.5805643393854 183.8999418322672 839.4222917408116 186.89191730678482Q836.2640191422378 189.88389278130242 831.513917061963 191.6182667981858Q826.7638149816883 193.3526408150692 819.9593798149517 193.3526408150692ZM824.8819951017596 178.54969293991192Q831.3791933832717 178.54969293991192 835.8283761675891 176.17858132996014Q840.2775589519064 173.80746972000838 842.5393622499349 169.8540412646812Q844.8011655479635 165.90061280935402 844.8011655479635 161.06337923395554V151.97811549653943Q843.8666747040562 152.5768315462458 842.0531060563003 153.12486187211618Q840.2395374085444 153.67289219798658 837.7464678071653 154.18132520842073Q835.2533982057864 154.68975821885488 832.3421786332456 155.17284836737102Q829.4309590607047 155.65593851588716 826.3518520910633 156.10259739408556Q822.0911577485717 156.70764553402893 818.4877730419337 158.09514184734164Q814.8843883352956 159.48263816065435 812.7049312122881 161.88066840459834Q810.5254740892806 164.27869864854236 810.5254740892806 168.0895825686871Q810.5254740892806 171.3429235266359 812.2962793764817 173.69819041002518Q814.0670846636829 176.05345729341443 817.2919167145951 177.30157511666317Q820.5167487655075 178.54969293991192 824.8819951017596 178.54969293991192Z M902.1694777333662 73.99999999999999V192.0H882.1493418666505V73.99999999999999Z M939.8661220286682 73.99999999999999V192.0H919.8459861619525V73.99999999999999Z"/>
</svg>
