<svg xmlns="http://www.w3.org/2000/svg" width="1200" height="720" viewBox="0 0 1200 720" role="img" aria-labelledby="title description">
<title id="title">Choose model complexity using validation error</title><desc id="description">Illustrative capacity curve: more components help training here, but not new observations.</desc>
<defs><filter id="shadow" x="-10%" y="-10%" width="120%" height="130%"><feDropShadow dx="0" dy="3" stdDeviation="5" flood-color="#243B53" flood-opacity=".07"/></filter><marker id="arrow" markerWidth="9" markerHeight="9" refX="7" refY="4.5" orient="auto-start-reverse"><path d="M0,0 L8,4.5 L0,9" fill="none" stroke="#64788C" stroke-width="1.4"/></marker></defs>
<style>text{font-family:Inter,DejaVu Sans,Arial,sans-serif;fill:#162C46}</style>
<rect width="1200" height="720" rx="24" fill="#F3F6FA"/>
<rect x="32" y="32" width="6" height="66" rx="3" fill="#1463A0"/>
<text x="56" y="59" font-size="30" font-weight="700" text-anchor="start" style="fill:#162C46">Choose model complexity using validation error</text>
<text x="56" y="94" font-size="19" font-weight="400" text-anchor="start" style="fill:#4C6278">Illustrative capacity curve: more components help training here, but not new observations.</text>
<path d="M98,520 L740,520" fill="none" stroke="#DDE5EE" stroke-width="1"/>
<text x="86" y="526" font-size="16" font-weight="400" text-anchor="end" style="fill:#4C6278">0</text>
<path d="M98,356.5 L740,356.5" fill="none" stroke="#DDE5EE" stroke-width="1"/>
<text x="86" y="362.5" font-size="16" font-weight="400" text-anchor="end" style="fill:#4C6278">0.4</text>
<path d="M98,193 L740,193" fill="none" stroke="#DDE5EE" stroke-width="1"/>
<text x="86" y="199" font-size="16" font-weight="400" text-anchor="end" style="fill:#4C6278">0.8</text>
<path d="M98,193 L98,520" fill="none" stroke="#4C6278" stroke-width="2"/>
<path d="M98,520 L740,520" fill="none" stroke="#4C6278" stroke-width="2"/>
<text x="419" y="556" font-size="18" font-weight="400" text-anchor="middle" style="fill:#4C6278">PLS components: 1 → 12</text>
<text x="98" y="175" font-size="18" font-weight="400" text-anchor="start" style="fill:#4C6278">RMSE · synthetic target units</text>
<polyline points="98.00,223.71 156.36,298.43 214.73,351.97 273.09,390.33 331.45,417.82 389.82,437.51 448.18,451.63 506.55,461.74 564.91,468.98 623.27,474.18 681.64,477.90 740.00,480.56" fill="none" stroke="#1463A0" stroke-width="3" stroke-linejoin="round"/>
<circle cx="98" cy="223.706" r="4" fill="#1463A0"/>
<circle cx="156.364" cy="298.427" r="4" fill="#1463A0"/>
<circle cx="214.727" cy="351.966" r="4" fill="#1463A0"/>
<circle cx="273.091" cy="390.329" r="4" fill="#1463A0"/>
<circle cx="331.455" cy="417.817" r="4" fill="#1463A0"/>
<circle cx="389.818" cy="437.514" r="4" fill="#1463A0"/>
<circle cx="448.182" cy="451.626" r="4" fill="#1463A0"/>
<circle cx="506.545" cy="461.739" r="4" fill="#1463A0"/>
<circle cx="564.909" cy="468.985" r="4" fill="#1463A0"/>
<circle cx="623.273" cy="474.176" r="4" fill="#1463A0"/>
<circle cx="681.636" cy="477.897" r="4" fill="#1463A0"/>
<circle cx="740" cy="480.562" r="4" fill="#1463A0"/>
<polyline points="98.00,297.67 156.36,356.20 214.73,391.70 273.09,413.23 331.45,411.99 389.82,405.60 448.18,396.10 506.55,384.71 564.91,372.17 623.27,358.94 681.64,345.28 740.00,331.37" fill="none" stroke="#A64C12" stroke-width="3" stroke-linejoin="round" stroke-dasharray="8 5"/>
<rect x="94" y="293.673" width="8" height="8" rx="1" fill="white" stroke="#A64C12"/>
<rect x="152.364" y="352.203" width="8" height="8" rx="1" fill="white" stroke="#A64C12"/>
<rect x="210.727" y="387.702" width="8" height="8" rx="1" fill="white" stroke="#A64C12"/>
<rect x="269.091" y="409.234" width="8" height="8" rx="1" fill="white" stroke="#A64C12"/>
<rect x="327.455" y="407.987" width="8" height="8" rx="1" fill="white" stroke="#A64C12"/>
<rect x="385.818" y="401.602" width="8" height="8" rx="1" fill="white" stroke="#A64C12"/>
<rect x="444.182" y="392.1" width="8" height="8" rx="1" fill="white" stroke="#A64C12"/>
<rect x="502.545" y="380.708" width="8" height="8" rx="1" fill="white" stroke="#A64C12"/>
<rect x="560.909" y="368.169" width="8" height="8" rx="1" fill="white" stroke="#A64C12"/>
<rect x="619.273" y="354.935" width="8" height="8" rx="1" fill="white" stroke="#A64C12"/>
<rect x="677.636" y="341.279" width="8" height="8" rx="1" fill="white" stroke="#A64C12"/>
<rect x="736" y="327.367" width="8" height="8" rx="1" fill="white" stroke="#A64C12"/>
<rect x="813" y="202" width="347" height="170" rx="16" fill="white" stroke="#D9E2EC" filter="url(#shadow)"/>
<rect x="813" y="202" width="7" height="170" rx="3" fill="#007B71" stroke="#007B71"/>
<text x="837" y="244" font-size="23" font-weight="700" text-anchor="start" style="fill:#007B71">Validation minimum</text>
<text x="837" y="281" font-size="20" font-weight="400" text-anchor="start" style="fill:#162C46">4 components</text>
<text x="837" y="310" font-size="20" font-weight="400" text-anchor="start" style="fill:#162C46">Keep the independent test</text>
<text x="837" y="339" font-size="20" font-weight="400" text-anchor="start" style="fill:#162C46">population untouched</text>
<rect x="813" y="407" width="347" height="40" rx="10" fill="white" stroke="#1463A0"/>
<text x="986.5" y="434" font-size="19" font-weight="600" text-anchor="middle" style="fill:#1463A0">Solid + circles: training</text>
<rect x="813" y="466" width="347" height="40" rx="10" fill="white" stroke="#A64C12"/>
<text x="986.5" y="493" font-size="19" font-weight="600" text-anchor="middle" style="fill:#A64C12">Dashed + squares: validation</text>
<rect x="40" y="604" width="1120" height="88" rx="12" fill="white" stroke="#D9E2EC"/>
<text x="60" y="631" font-size="17" font-weight="700" text-anchor="start" style="fill:#007B71">EXPECTED RESULT</text>
<text x="60" y="657" font-size="20" font-weight="400" text-anchor="start" style="fill:#162C46">Select 4 components from validation, even though training error continues to decrease.</text>
</svg>
